<?xml version="1.0" encoding="UTF-8" standalone="no"?>
<!-- Created with Inkscape (http://www.inkscape.org/) -->

<svg
   xmlns:dc="http://purl.org/dc/elements/1.1/"
   xmlns:cc="http://creativecommons.org/ns#"
   xmlns:rdf="http://www.w3.org/1999/02/22-rdf-syntax-ns#"
   xmlns:svg="http://www.w3.org/2000/svg"
   xmlns="http://www.w3.org/2000/svg"
   xmlns:xlink="http://www.w3.org/1999/xlink"
   xmlns:sodipodi="http://sodipodi.sourceforge.net/DTD/sodipodi-0.dtd"
   xmlns:inkscape="http://www.inkscape.org/namespaces/inkscape"
   width="703.89264"
   height="784.24573"
   id="svg2"
   version="1.1"
   inkscape:version="0.48.4 r9939"
   sodipodi:docname="fuego-logo.svg">
  <defs
     id="defs4">
    <linearGradient
       id="linearGradient3796">
      <stop
         style="stop-color:#ff0a00;stop-opacity:1;"
         offset="0"
         id="stop3798" />
      <stop
         id="stop3806"
         offset="1"
         style="stop-color:#ffff00;stop-opacity:1;" />
    </linearGradient>
    <linearGradient
       inkscape:collect="always"
       xlink:href="#linearGradient3796"
       id="linearGradient3802"
       x1="391.44775"
       y1="118.16283"
       x2="392.26965"
       y2="831.22412"
       gradientUnits="userSpaceOnUse"
       gradientTransform="matrix(1,0,0,0.88884469,-17.074847,142.20441)" />
  </defs>
  <sodipodi:namedview
     id="base"
     pagecolor="#ffffff"
     bordercolor="#666666"
     borderopacity="1.0"
     inkscape:pageopacity="0.0"
     inkscape:pageshadow="2"
     inkscape:zoom="0.31112698"
     inkscape:cx="408.11627"
     inkscape:cy="421.17987"
     inkscape:document-units="px"
     inkscape:current-layer="layer1"
     showgrid="false"
     inkscape:object-paths="true"
     inkscape:snap-nodes="false"
     inkscape:snap-global="false"
     inkscape:window-width="1022"
     inkscape:window-height="855"
     inkscape:window-x="2010"
     inkscape:window-y="149"
     inkscape:window-maximized="0"
     fit-margin-top="0"
     fit-margin-left="0"
     fit-margin-right="0"
     fit-margin-bottom="0" />
  <metadata
     id="metadata7">
    <rdf:RDF>
      <cc:Work
         rdf:about="">
        <dc:format>image/svg+xml</dc:format>
        <dc:type
           rdf:resource="http://purl.org/dc/dcmitype/StillImage" />
        <dc:title />
      </cc:Work>
    </rdf:RDF>
  </metadata>
  <g
     inkscape:label="Layer 1"
     inkscape:groupmode="layer"
     id="layer1"
     transform="translate(-22.498852,-203.83403)">
    <path
       style="fill:none;stroke:#000000;stroke-width:1px;stroke-linecap:butt;stroke-linejoin:miter;stroke-opacity:1"
       d="m 258.78866,1178.1571 c -45.09267,54.2952 17.4089,132.2655 11.36364,172.7273 -6.69144,44.7866 -25.00001,55.6818 -51.13637,79.5454 -23.08911,21.0814 -64.29402,71.4247 -77.27272,146.5909 -10.53679,61.0239 3.79237,135.903 47.72727,179.5455 42.16481,41.8841 86.66324,46.1916 124.99999,52.2727 40.90699,6.4888 101.04089,5.2509 161.99557,-5.0149 59.40229,-10.0043 67.25821,-27.8573 91.41352,-49.5305 44.25782,-39.7101 65.9091,-129.5455 65.9091,-129.5455 0,0 -4.90549,9.8444 -29.0043,33.5426 -22.92568,22.5445 -33.15296,23.6809 -42.58661,28.9574 47.12039,-60.8594 57.71966,-99.4257 67.04545,-164.7727 11.72485,-82.1576 -94.31817,-226.1364 -94.31817,-226.1364 0,0 27.04463,108.627 9.0909,180.6818 -12.02092,48.2443 -40.90909,86.3637 -40.90909,86.3637 0,0 -30.73361,-46.7448 -35.22727,-93.1819 -6.46227,-66.7805 10.66042,-149.1779 -7.95454,-213.6363 -10.77576,-37.3134 -105.68183,-114.7727 -105.68183,-114.7727 0,0 40.92621,78.1929 46.59091,123.8636 7.84041,63.212 -32.72196,178.785 -35.22727,185.2273 -7.95455,20.4545 4.78439,60.0948 39.77273,109.0909 24.78588,34.709 2.27273,111.3636 2.27273,111.3636 0,0 -38.97291,1.2004 -81.81819,-46.5909 -18.94964,-21.1372 -26.65382,-47.7151 -29.54545,-87.5 -2.8707,-39.4968 7.54917,-91.7038 13.63636,-105.6818 30.68183,-70.4546 20.78344,-72.7815 22.72727,-111.3637 2.00546,-39.8056 -51.81726,-84.1592 -42.04545,-120.4545 l 23.86364,-88.6363 z"
       id="path3003"
       inkscape:connector-curvature="0"
       sodipodi:nodetypes="sssssssscscscscsscssscssssscs" />
    <path
       style="fill:url(#linearGradient3802);fill-opacity:1"
       d="m 327.33643,861.63878 c -12.57468,-0.99983 -44.0128,-5.33651 -58.20634,-8.02916 -34.77454,-6.5971 -61.52024,-19.1322 -85.05989,-39.86568 -19.3556,-17.0482 -30.83389,-33.88659 -40.37823,-59.2339 -8.20547,-21.79165 -11.35513,-39.9469 -11.36451,-65.50737 -0.0163,-44.34198 14.9986,-86.75584 45.05339,-127.26641 10.86076,-14.63911 24.25373,-28.09875 44.64057,-44.86279 10.1902,-8.37938 20.60177,-17.734 23.13681,-20.78808 11.24765,-13.55048 18.39824,-32.89613 18.29445,-49.49491 -0.0565,-9.03101 -1.77264,-15.08089 -13.32334,-46.96736 -10.55949,-29.15022 -12.94081,-38.08985 -13.86119,-52.03583 -0.53013,-8.03283 -0.22867,-12.69619 1.2361,-19.12163 3.3291,-14.60353 7.40449,-20.28623 38.08488,-53.10543 15.27768,-16.34272 27.89165,-29.6127 28.03102,-29.48881 0.13938,0.12389 -4.86984,17.04231 -11.13161,37.59649 -9.77723,32.09364 -11.37023,38.40635 -11.28022,44.70098 0.1543,10.78962 4.36914,20.79319 17.47708,41.48025 24.80298,39.14428 28.10339,39.83998 28.10339,72.43646 0,31.89286 -4.93761,37.46056 -20.01584,70.45518 -10.59087,23.17523 -15.49396,42.30345 -18.56495,72.42665 -3.68061,36.10308 2.9214,75.0695 16.32962,96.38055 13.15012,20.90085 41.674,42.69402 68.26828,52.15922 8.40317,2.99076 26.41022,6.60128 27.609,5.53575 1.11816,-0.99385 5.88165,-20.32717 7.67609,-31.1545 2.19057,-13.21748 2.4733,-36.77106 0.55289,-46.06163 -2.05293,-9.93173 -5.21899,-16.39709 -13.54067,-27.65118 -17.82401,-24.10485 -26.64995,-39.07176 -33.18733,-56.27856 -2.82545,-7.43675 -3.76682,-11.87961 -4.18438,-19.74839 -0.53242,-10.03291 -0.47095,-10.33729 5.20068,-25.7563 24.74967,-67.28479 35.93991,-124.35628 30.81041,-157.13661 -2.85259,-18.22964 -15.57755,-50.5079 -32.92287,-83.51244 -5.49057,-10.44741 -9.54629,-18.85608 -9.01269,-18.68594 2.97426,0.94842 36.80652,28.8296 55.26192,45.54137 34.17571,30.94687 42.47338,42.20255 47.44494,64.35851 5.00514,22.30552 5.64949,33.70862 4.53744,80.29903 -2.16987,90.90988 -1.1672,104.53251 9.73825,132.30723 6.86563,17.48581 23.86359,47.59691 26.76283,47.40907 2.01441,-0.13051 15.32416,-19.78455 23.891,-35.27903 14.22299,-25.72448 20.89306,-47.20237 23.28366,-74.97423 2.32483,-27.00794 -1.55886,-70.32735 -9.67008,-107.86185 -1.54409,-7.14525 -2.64584,-13.13502 -2.44832,-13.31057 0.8064,-0.71676 26.61272,35.27565 38.31689,53.44109 25.63342,39.78426 42.01086,74.12974 48.999,102.75683 3.44531,14.1138 3.44716,36.65325 0.005,53.58441 -10.56572,51.96112 -24.62945,82.25334 -55.54988,119.65022 -4.57481,5.53285 -8.31771,10.65129 -8.31771,11.37434 0,1.60956 15.79236,-5.27653 25.41839,-11.08342 7.77038,-4.68747 28.32247,-22.09595 36.48335,-30.90293 3.10846,-3.35456 5.82935,-5.9413 6.04645,-5.74833 0.59094,0.52524 -4.02833,13.90921 -8.55436,24.78555 -9.59029,23.04617 -22.2263,45.78936 -33.6007,60.47694 -11.30596,14.59921 -43.43855,42.24408 -57.61131,49.56515 -18.40537,9.50749 -43.36246,15.16184 -86.93182,19.6955 -33.60541,3.49686 -81.474,4.60363 -107.97508,2.4965 z"
       id="path3794"
       inkscape:connector-curvature="0"
       sodipodi:nodetypes="csssssssssssscssssssssssssssssscsssssssscssccsssssssscc" />
    <text
       xml:space="preserve"
       style="font-size:215.35455322px;font-style:normal;font-weight:normal;line-height:125%;letter-spacing:0px;word-spacing:0px;fill:#000000;fill-opacity:1;stroke:none;font-family:Sans"
       x="80.05439"
       y="740.23706"
       id="text3810"
       sodipodi:linespacing="125%"
       transform="scale(0.82790585,1.2078668)"><tspan
         sodipodi:role="line"
         id="tspan3812"
         x="80.05439"
         y="740.23706"
         style="font-size:215.35455432px;font-style:normal;font-variant:normal;font-weight:bold;font-stretch:normal;text-align:start;line-height:125%;writing-mode:lr;text-anchor:start;fill:#d45500;font-family:DejaVu Sans;-inkscape-font-specification:DejaVu Sans Bold">Fuego</tspan></text>
  </g>
</svg>
