<?xml version="1.0" encoding="UTF-8" standalone="no"?>
<!-- Created with Inkscape (http://www.inkscape.org/) -->

<svg
   xmlns:dc="http://purl.org/dc/elements/1.1/"
   xmlns:cc="http://creativecommons.org/ns#"
   xmlns:rdf="http://www.w3.org/1999/02/22-rdf-syntax-ns#"
   xmlns:svg="http://www.w3.org/2000/svg"
   xmlns="http://www.w3.org/2000/svg"
   xmlns:sodipodi="http://sodipodi.sourceforge.net/DTD/sodipodi-0.dtd"
   xmlns:inkscape="http://www.inkscape.org/namespaces/inkscape"
   id="svg4322"
   version="1.1"
   inkscape:version="0.91 r13725"
   width="222.79303"
   height="235.66429"
   viewBox="0 0 222.79303 235.66429"
   sodipodi:docname="fuego.svg">
  <metadata
     id="metadata4328">
    <rdf:RDF>
      <cc:Work
         rdf:about="">
        <dc:format>image/svg+xml</dc:format>
        <dc:type
           rdf:resource="http://purl.org/dc/dcmitype/StillImage" />
        <dc:title></dc:title>
      </cc:Work>
    </rdf:RDF>
  </metadata>
  <defs
     id="defs4326" />
  <sodipodi:namedview
     pagecolor="#ffffff"
     bordercolor="#666666"
     borderopacity="1"
     objecttolerance="10"
     gridtolerance="10"
     guidetolerance="10"
     inkscape:pageopacity="0"
     inkscape:pageshadow="2"
     inkscape:window-width="1920"
     inkscape:window-height="1004"
     id="namedview4324"
     showgrid="false"
     inkscape:zoom="1.2537776"
     inkscape:cx="165.29462"
     inkscape:cy="243.27697"
     inkscape:window-x="0"
     inkscape:window-y="24"
     inkscape:window-maximized="1"
     inkscape:current-layer="svg4322"
     fit-margin-top="0"
     fit-margin-left="0"
     fit-margin-right="0"
     fit-margin-bottom="0" />
  <path
     style="fill:#ea5413;fill-opacity:1;fill-rule:evenodd;stroke:#8c0000;stroke-width:1px;stroke-linecap:butt;stroke-linejoin:miter;stroke-opacity:1"
     d="m 99.253214,231.3942 c -11.05087,1.12796 -21.68468,7.89574 -40.29999,0 -18.61531,-7.89573 -35.75451,-16.62593 -45.37483,-33.83886 -7.0071404,-12.53735 -13.08890044,-41.7346 -13.08890044,-41.7346 0,0 3.19151004,7.70222 5.81729004,11.84361 3.7546104,5.92179 9.2731504,8.17773 15.7066704,11.8436 2.71055,1.54449 13.94474,5.63981 19.19705,2.8199 1.02507,-0.55035 -8.51431,1.36469 -16.18193,-9.86966 -3.3681,-4.93484 -4.46944,-6.2038 -5.92376,-20.30332 -1.45433,-14.09953 -0.58172,-18.89337 -2.90865,-26.50711 -2.32691,-7.61375 -6.9807404,-14.09953 -6.10815,-21.14929 0.8726,-7.049756 6.10815,-18.893366 6.10815,-18.893366 0,0 -2.61777,7.61375 -2.03604,12.1256 0.58173,4.511836 2.32691,14.381506 8.14419,21.149286 5.81729,6.76777 17.74274,6.20379 17.74274,6.20379 0,0 -6.10816,-4.22986 -6.10816,-10.99763 0,-6.76778 5.52642,-17.765406 5.52642,-17.765406 0,0 2.61778,-3.10189 2.03605,-7.33175 -0.58172,-4.22986 -2.32692,-3.38389 -0.87259,-13.535544 1.45432,-10.151659 12.04869,-23.687204 12.04869,-23.687204 0,0 -3.54861,6.194763 -4.36297,10.433649 -1.74518,9.083937 -0.12325,16.292369 1.33107,18.047389 1.56442,1.88788 7.85334,7.04977 7.85334,7.04977 0,0 -2.68221,-11.925216 -2.24803,-16.778438 0.73159,-8.177725 2.28907,-13.810762 3.41149,-16.778436 3.14626,-8.31872 9.59852,-12.971564 11.63457,-20.303318 2.03605,-7.331753 -0.29086,-17.765403 -0.29086,-17.765403 0,0 8.14419,7.895735 8.72592,13.535545 0.58174,5.639811 0.58174,23.969195 1.16346,29.890996 0.58173,5.921801 13.0889,16.35545 13.0889,16.35545 0,0 -5.69573,-5.206308 -4.93583,-13.958531 0.40424,-4.655853 0.23616,-11.679717 2.60892,-19.880332 1.97563,-6.828059 14.386196,-24.34416 17.426206,-27.07109 10.53126,-9.446683 19.51355,-14.09952604 19.51355,-14.09952604 0,0 -5.23556,7.61374404 -3.19952,10.99763104 2.03606,3.383886 15.70668,15.509478 20.94224,24.533175 5.23556,9.023697 6.45226,10.433649 7.2716,18.611374 0.45813,4.57256 -6.39901,14.381517 -6.39901,14.381517 0,0 11.05284,-4.793839 13.37976,-11.279621 2.32691,-6.485782 3.49037,-16.637441 1.16346,-20.585308 -2.32692,-3.947867 -5.23556,-7.049763 -5.23556,-7.049763 0,0 12.50716,1.691943 16.2884,6.485782 3.78124,4.793839 13.96148,20.867299 11.63457,24.815166 -2.32691,3.947867 -5.52642,12.971564 -9.88938,15.50948 -4.36297,2.53791 -9.88939,6.48578 -9.30766,12.68957 0.58173,6.20379 4.65382,18.047386 4.65382,18.047386 0,0 -0.29086,-5.63981 4.9447,-14.663496 5.23556,-9.0237 16.2884,-16.07346 20.94223,-17.765405 4.65383,-1.691943 8.1442,-1.691943 8.1442,-1.691943 0,0 -5.23555,5.639808 -5.81729,9.869668 -0.58173,4.22986 -1.16345,8.74171 1.16347,14.9455 2.32691,6.203786 13.08889,14.381506 11.34371,24.815156 -1.7452,10.43365 -4.9447,22.27725 -8.14421,26.50711 -3.1995,4.22986 -7.85333,11.27962 -7.85333,11.27962 0,0 5.81728,1.12796 9.88939,-2.25592 4.07209,-3.38389 12.21629,-11.27962 13.37975,-13.53555 l 4.65383,-9.02369 c 0,0 1.16346,19.73933 0.58173,25.66113 -0.58173,5.92181 -1.74518,29.32702 -7.85334,38.9147 -6.10815,9.58767 -11.63458,19.45734 -22.39656,25.37914 -10.76197,5.9218 -21.52395,5.9218 -31.12247,5.63981 -9.59853,-0.28199 -18.65278,-1.12796 -32.28594,-3.38388 -11.62588,0.43553 -22.72671,2.25164 -29.216576,3.10189 z"
     id="path4332"
     inkscape:connector-curvature="0"
     sodipodi:nodetypes="csscssssssscsscscsscsscssscsscssscssscsscsssscsscsssscsscsssscc" />
  <path
     style="fill:#ee780f;fill-opacity:1;fill-rule:evenodd;stroke:none;stroke-width:1px;stroke-linecap:butt;stroke-linejoin:miter;stroke-opacity:1"
     d="m 127.54956,212.47353 c 0,0 -5.72499,7.53437 -16.90236,7.77742 -11.177366,0.24304 -41.710676,-0.48609 -52.342806,-6.07611 -10.63214,-5.59002 -16.62975,-10.45091 -16.62975,-10.45091 0,0 2.99881,0.48609 10.35952,2.1874 7.36071,1.70131 15.53927,-3.64566 15.53927,-3.64566 l 9.54166,-1.45826 c 0,0 -16.90236,-5.83306 -22.89998,-10.69396 -5.99762,-4.86088 -15.26665,-23.33225 -15.81189,-27.46399 -0.54524,-4.13175 -4.63452,-3.64567 5.17976,2.18739 9.81427,5.83306 9.81427,5.83306 9.81427,5.83306 0,0 15.81189,-0.48608 17.72023,-0.48608 1.90833,0 -8.17857,-7.77741 -11.44999,-12.88135 -3.27143,-5.10393 -5.17976,-26.97791 -5.17976,-26.97791 0,0 -2.99881,-0.97218 3.27142,2.91653 6.27023,3.88871 23.99046,8.02046 25.08093,8.02046 1.09048,0 -3.81666,-12.39526 -5.45237,-17.25614 -1.63571,-4.86089 2.45356,-19.44354 2.45356,-19.44354 0,0 -0.54523,2.43044 4.08929,4.86088 4.63452,2.43045 11.99523,10.20786 11.99523,10.20786 0,0 -2.99881,-17.98527 1.09047,-27.220946 4.089286,-9.23568 21.536876,-26.977915 21.536876,-26.977915 0,0 -4.08928,5.590018 0.81786,10.693947 4.90714,5.103928 11.72261,9.964818 14.99404,17.499188 3.27142,7.534366 9.54165,12.395256 4.90713,16.526996 -4.63451,4.13176 -4.63451,5.59003 -4.63451,5.59003 0,0 10.63213,-0.48609 15.26664,-5.34697 4.63452,-4.8609 7.63333,-10.20787 7.63333,-10.20787 0,0 0.27262,14.33961 -0.81785,21.3879 -1.09047,7.04828 -5.72499,14.8257 -7.90595,17.25613 -2.18095,2.43045 8.17857,-3.8887 12.81309,-4.13174 4.63452,-0.24304 10.35951,0.24304 15.26665,-2.67349 4.90714,-2.91653 5.99761,-9.96481 5.99761,-9.96481 0,0 7.63333,11.18003 5.99762,16.527 -1.63571,5.34698 -3.27143,22.84616 -6.54285,26.97792 -3.27143,4.13175 -13.63095,19.92962 -13.63095,19.92962 0,0 6.54285,4.8609 14.4488,2.91654 7.90594,-1.94435 17.99284,-4.86089 17.99284,-4.86089 0,0 -2.72618,15.79787 -15.26665,24.06138 -12.54047,8.26351 -19.62855,13.12439 -35.16782,10.4509 -15.53928,-2.67348 -23.17261,-5.59001 -23.17261,-5.59001 z"
     id="path4334"
     inkscape:connector-curvature="0" />
  <circle
     style="opacity:1;fill:#500000;fill-opacity:1;stroke:#fff100;stroke-width:1.60000002;stroke-miterlimit:4;stroke-dasharray:none;stroke-dashoffset:0;stroke-opacity:1"
     id="path4336"
     cx="69.890053"
     cy="130.99455"
     r="3.8068721" />
  <circle
     r="3.8068721"
     cy="130.99455"
     cx="169.89001"
     id="circle4338"
     style="opacity:1;fill:#500000;fill-opacity:1;stroke:#fff100;stroke-width:1.60000002;stroke-miterlimit:4;stroke-dasharray:none;stroke-dashoffset:0;stroke-opacity:1" />
  <path
     style="fill:#fff100;fill-opacity:1;fill-rule:evenodd;stroke:#b03000;stroke-width:1px;stroke-linecap:butt;stroke-linejoin:miter;stroke-opacity:1"
     d="m 96.325294,149.31919 50.248136,-3.58915 c 0,0 -4.78553,15.3536 -11.96384,19.54095 -7.17831,4.18734 -19.74034,4.18734 -23.3295,2.19337 -3.58915,-1.99398 -11.565046,-9.37168 -13.160226,-12.76144 -1.59518,-3.38975 -1.79457,-5.38373 -1.79457,-5.38373 z"
     id="path4346"
     inkscape:connector-curvature="0" />
</svg>
